<svg width="50" height="50" viewBox="0 0 50 50" fill="none" xmlns="http://www.w3.org/2000/svg">
<rect width="50" height="50" rx="10" fill="white"/>
<mask id="mask0_1938_372" style="mask-type:alpha" maskUnits="userSpaceOnUse" x="10" y="10" width="30" height="30">
<rect x="10" y="10" width="30" height="30" fill="#D9D9D9"/>
</mask>
<g mask="url(#mask0_1938_372)">
<path d="M15.625 28.125C14.7517 28.125 14.0125 27.8225 13.4075 27.2175C12.8025 26.6125 12.5 25.8733 12.5 25C12.5 24.1267 12.8025 23.3875 13.4075 22.7825C14.0125 22.1775 14.7517 21.875 15.625 21.875V19.1347C15.625 18.5132 15.8463 17.9812 16.2888 17.5387C16.7313 17.0962 17.2632 16.875 17.8847 16.875H21.875C21.875 16.0017 22.1775 15.2625 22.7825 14.6575C23.3875 14.0525 24.1267 13.75 25 13.75C25.8733 13.75 26.6125 14.0525 27.2175 14.6575C27.8225 15.2625 28.125 16.0017 28.125 16.875H32.1153C32.7368 16.875 33.2687 17.0962 33.7113 17.5387C34.1537 17.9812 34.375 18.5132 34.375 19.1347V21.875C35.2483 21.875 35.9875 22.1775 36.5925 22.7825C37.1975 23.3875 37.5 24.1267 37.5 25C37.5 25.8733 37.1975 26.6125 36.5925 27.2175C35.9875 27.8225 35.2483 28.125 34.375 28.125V33.3653C34.375 33.9868 34.1537 34.5187 33.7113 34.9613C33.2687 35.4037 32.7368 35.625 32.1153 35.625H17.8847C17.2632 35.625 16.7313 35.4037 16.2888 34.9613C15.8463 34.5187 15.625 33.9868 15.625 33.3653V28.125ZM21.2484 25.9375C21.6822 25.9375 22.0513 25.7857 22.3556 25.4822C22.6602 25.1786 22.8125 24.8101 22.8125 24.3766C22.8125 23.9428 22.6607 23.5737 22.3572 23.2694C22.0536 22.9648 21.6851 22.8125 21.2516 22.8125C20.8178 22.8125 20.4488 22.9643 20.1444 23.2678C19.8398 23.5714 19.6875 23.9399 19.6875 24.3734C19.6875 24.8072 19.8393 25.1763 20.1428 25.4806C20.4464 25.7852 20.8149 25.9375 21.2484 25.9375ZM28.7484 25.9375C29.1822 25.9375 29.5513 25.7857 29.8556 25.4822C30.1602 25.1786 30.3125 24.8101 30.3125 24.3766C30.3125 23.9428 30.1607 23.5737 29.8572 23.2694C29.5536 22.9648 29.1851 22.8125 28.7516 22.8125C28.3178 22.8125 27.9488 22.9643 27.6444 23.2678C27.3398 23.5714 27.1875 23.9399 27.1875 24.3734C27.1875 24.8072 27.3393 25.1763 27.6428 25.4806C27.9464 25.7852 28.3149 25.9375 28.7484 25.9375ZM20.3125 30.9375H29.6875V29.0625H20.3125V30.9375ZM17.8847 33.75H32.1153C32.2276 33.75 32.3198 33.714 32.3919 33.6419C32.464 33.5698 32.5 33.4776 32.5 33.3653V19.1347C32.5 19.0224 32.464 18.9302 32.3919 18.8581C32.3198 18.786 32.2276 18.75 32.1153 18.75H17.8847C17.7724 18.75 17.6802 18.786 17.6081 18.8581C17.536 18.9302 17.5 19.0224 17.5 19.1347V33.3653C17.5 33.4776 17.536 33.5698 17.6081 33.6419C17.6802 33.714 17.7724 33.75 17.8847 33.75Z" fill="#627580"/>
</g>
</svg>
