<svg width="50" height="50" viewBox="0 0 50 50" fill="none" xmlns="http://www.w3.org/2000/svg">
<rect width="50" height="50" rx="10" fill="white"/>
<mask id="mask0_1938_412" style="mask-type:alpha" maskUnits="userSpaceOnUse" x="10" y="10" width="30" height="30">
<rect x="10" y="10" width="30" height="30" fill="#D9D9D9"/>
</mask>
<g mask="url(#mask0_1938_412)">
<path d="M16.6347 36.875C16.0032 36.875 15.4688 36.6563 15.0313 36.2188C14.5938 35.7813 14.375 35.2468 14.375 34.6153V17.8847C14.375 17.2532 14.5938 16.7188 15.0313 16.2813C15.4688 15.8438 16.0032 15.625 16.6347 15.625H18.3653V12.981H20.2884V15.625H29.7597V12.981H31.6347V15.625H33.3653C33.9968 15.625 34.5312 15.8438 34.9688 16.2813C35.4062 16.7188 35.625 17.2532 35.625 17.8847V34.6153C35.625 35.2468 35.4062 35.7813 34.9688 36.2188C34.5312 36.6563 33.9968 36.875 33.3653 36.875H16.6347ZM16.6347 35H33.3653C33.4616 35 33.5497 34.9599 33.6297 34.8797C33.7099 34.7997 33.75 34.7116 33.75 34.6153V22.8847H16.25V34.6153C16.25 34.7116 16.2901 34.7997 16.3703 34.8797C16.4503 34.9599 16.5384 35 16.6347 35ZM16.25 21.0097H33.75V17.8847C33.75 17.7885 33.7099 17.7003 33.6297 17.6203C33.5497 17.5401 33.4616 17.5 33.3653 17.5H16.6347C16.5384 17.5 16.4503 17.5401 16.3703 17.6203C16.2901 17.7003 16.25 17.7885 16.25 17.8847V21.0097ZM25 27.5963C24.694 27.5963 24.4331 27.4885 24.2175 27.2728C24.0021 27.0574 23.8944 26.7966 23.8944 26.4903C23.8944 26.1843 24.0021 25.9235 24.2175 25.7078C24.4331 25.4924 24.694 25.3847 25 25.3847C25.306 25.3847 25.5669 25.4924 25.7825 25.7078C25.9979 25.9235 26.1056 26.1843 26.1056 26.4903C26.1056 26.7966 25.9979 27.0574 25.7825 27.2728C25.5669 27.4885 25.306 27.5963 25 27.5963ZM20 27.5963C19.694 27.5963 19.4331 27.4885 19.2175 27.2728C19.0021 27.0574 18.8944 26.7966 18.8944 26.4903C18.8944 26.1843 19.0021 25.9235 19.2175 25.7078C19.4331 25.4924 19.694 25.3847 20 25.3847C20.306 25.3847 20.5669 25.4924 20.7825 25.7078C20.9979 25.9235 21.1056 26.1843 21.1056 26.4903C21.1056 26.7966 20.9979 27.0574 20.7825 27.2728C20.5669 27.4885 20.306 27.5963 20 27.5963ZM30 27.5963C29.694 27.5963 29.4331 27.4885 29.2175 27.2728C29.0021 27.0574 28.8944 26.7966 28.8944 26.4903C28.8944 26.1843 29.0021 25.9235 29.2175 25.7078C29.4331 25.4924 29.694 25.3847 30 25.3847C30.306 25.3847 30.5669 25.4924 30.7825 25.7078C30.9979 25.9235 31.1056 26.1843 31.1056 26.4903C31.1056 26.7966 30.9979 27.0574 30.7825 27.2728C30.5669 27.4885 30.306 27.5963 30 27.5963ZM25 32.5C24.694 32.5 24.4331 32.3922 24.2175 32.1766C24.0021 31.9612 23.8944 31.7004 23.8944 31.3944C23.8944 31.0881 24.0021 30.8273 24.2175 30.6119C24.4331 30.3963 24.694 30.2885 25 30.2885C25.306 30.2885 25.5669 30.3963 25.7825 30.6119C25.9979 30.8273 26.1056 31.0881 26.1056 31.3944C26.1056 31.7004 25.9979 31.9612 25.7825 32.1766C25.5669 32.3922 25.306 32.5 25 32.5ZM20 32.5C19.694 32.5 19.4331 32.3922 19.2175 32.1766C19.0021 31.9612 18.8944 31.7004 18.8944 31.3944C18.8944 31.0881 19.0021 30.8273 19.2175 30.6119C19.4331 30.3963 19.694 30.2885 20 30.2885C20.306 30.2885 20.5669 30.3963 20.7825 30.6119C20.9979 30.8273 21.1056 31.0881 21.1056 31.3944C21.1056 31.7004 20.9979 31.9612 20.7825 32.1766C20.5669 32.3922 20.306 32.5 20 32.5ZM30 32.5C29.694 32.5 29.4331 32.3922 29.2175 32.1766C29.0021 31.9612 28.8944 31.7004 28.8944 31.3944C28.8944 31.0881 29.0021 30.8273 29.2175 30.6119C29.4331 30.3963 29.694 30.2885 30 30.2885C30.306 30.2885 30.5669 30.3963 30.7825 30.6119C30.9979 30.8273 31.1056 31.0881 31.1056 31.3944C31.1056 31.7004 30.9979 31.9612 30.7825 32.1766C30.5669 32.3922 30.306 32.5 30 32.5Z" fill="#627580"/>
</g>
</svg>
