<svg width="50" height="50" viewBox="0 0 50 50" fill="none" xmlns="http://www.w3.org/2000/svg">
<rect width="50" height="50" rx="10" fill="#E7EFF4"/>
<mask id="mask0_1888_17" style="mask-type:alpha" maskUnits="userSpaceOnUse" x="10" y="10" width="30" height="30">
<rect x="10" y="10" width="30" height="30" fill="#D9D9D9"/>
</mask>
<g mask="url(#mask0_1888_17)">
<path d="M15 20.505H35V17.8847C35 17.7884 34.9599 17.7003 34.8797 17.6203C34.7997 17.5401 34.7116 17.5 34.6153 17.5H15.3847C15.2884 17.5 15.2003 17.5401 15.1203 17.6203C15.0401 17.7003 15 17.7884 15 17.8847V20.505ZM13.125 17.8847C13.125 17.2532 13.3438 16.7188 13.7813 16.2813C14.2188 15.8438 14.7532 15.625 15.3847 15.625H34.6153C35.2468 15.625 35.7812 15.8438 36.2188 16.2813C36.6562 16.7188 36.875 17.2532 36.875 17.8847V24.495H15V32.1153C15 32.2116 15.0401 32.2997 15.1203 32.3797C15.2003 32.4599 15.2884 32.5 15.3847 32.5H20.8581V34.375H15.3847C14.7532 34.375 14.2188 34.1562 13.7813 33.7188C13.3438 33.2812 13.125 32.7468 13.125 32.1153V17.8847ZM28.4953 36.5866L23.6153 31.7066L24.9328 30.3894L28.4953 33.9134L35.5816 26.8269L36.8991 28.1825L28.4953 36.5866ZM15 17.8847V32.1153C15 32.2116 15.0401 32.2997 15.1203 32.3797C15.2003 32.4599 15.2884 32.5 15.3847 32.5H15V26.8391V30.3822V17.5H15.3847C15.2884 17.5 15.2003 17.5401 15.1203 17.6203C15.0401 17.7003 15 17.7884 15 17.8847Z" fill="#627580"/>
</g>
</svg>
