<svg width="50" height="50" viewBox="0 0 50 50" fill="none" xmlns="http://www.w3.org/2000/svg">
<rect width="50" height="50" rx="10" fill="white"/>
<mask id="mask0_1938_421" style="mask-type:alpha" maskUnits="userSpaceOnUse" x="10" y="10" width="30" height="30">
<rect x="10" y="10" width="30" height="30" fill="#D9D9D9"/>
</mask>
<g mask="url(#mask0_1938_421)">
<path d="M19.2069 30.9375H21.0816V22.8125H19.2069V30.9375ZM24.0625 30.9375H25.9375V19.0625H24.0625V30.9375ZM28.9184 30.9375H30.7931V26.5625H28.9184V30.9375ZM16.6347 35.625C16.0032 35.625 15.4688 35.4062 15.0313 34.9688C14.5938 34.5312 14.375 33.9968 14.375 33.3653V16.6347C14.375 16.0032 14.5938 15.4688 15.0313 15.0313C15.4688 14.5938 16.0032 14.375 16.6347 14.375H33.3653C33.9968 14.375 34.5312 14.5938 34.9688 15.0313C35.4062 15.4688 35.625 16.0032 35.625 16.6347V33.3653C35.625 33.9968 35.4062 34.5312 34.9688 34.9688C34.5312 35.4062 33.9968 35.625 33.3653 35.625H16.6347ZM16.6347 33.75H33.3653C33.4616 33.75 33.5497 33.7099 33.6297 33.6297C33.7099 33.5497 33.75 33.4616 33.75 33.3653V16.6347C33.75 16.5384 33.7099 16.4503 33.6297 16.3703C33.5497 16.2901 33.4616 16.25 33.3653 16.25H16.6347C16.5384 16.25 16.4503 16.2901 16.3703 16.3703C16.2901 16.4503 16.25 16.5384 16.25 16.6347V33.3653C16.25 33.4616 16.2901 33.5497 16.3703 33.6297C16.4503 33.7099 16.5384 33.75 16.6347 33.75Z" fill="#627580"/>
</g>
</svg>
