<svg width="50" height="50" viewBox="0 0 50 50" fill="none" xmlns="http://www.w3.org/2000/svg">
<rect width="50" height="50" rx="10" fill="white"/>
<mask id="mask0_1938_380" style="mask-type:alpha" maskUnits="userSpaceOnUse" x="10" y="10" width="30" height="30">
<rect x="10" y="10" width="30" height="30" fill="#D9D9D9"/>
</mask>
<g mask="url(#mask0_1938_380)">
<path d="M20 21.1297C20.3142 21.1297 20.581 21.02 20.8006 20.8006C21.02 20.581 21.1297 20.3142 21.1297 20C21.1297 19.6858 21.02 19.419 20.8006 19.1994C20.581 18.98 20.3142 18.8703 20 18.8703C19.6858 18.8703 19.419 18.98 19.1994 19.1994C18.98 19.419 18.8703 19.6858 18.8703 20C18.8703 20.3142 18.98 20.581 19.1994 20.8006C19.419 21.02 19.6858 21.1297 20 21.1297ZM20 26.1297C20.3142 26.1297 20.581 26.02 20.8006 25.8006C21.02 25.581 21.1297 25.3142 21.1297 25C21.1297 24.6858 21.02 24.419 20.8006 24.1994C20.581 23.98 20.3142 23.8703 20 23.8703C19.6858 23.8703 19.419 23.98 19.1994 24.1994C18.98 24.419 18.8703 24.6858 18.8703 25C18.8703 25.3142 18.98 25.581 19.1994 25.8006C19.419 26.02 19.6858 26.1297 20 26.1297ZM20 31.1297C20.3142 31.1297 20.581 31.02 20.8006 30.8006C21.02 30.581 21.1297 30.3142 21.1297 30C21.1297 29.6858 21.02 29.419 20.8006 29.1994C20.581 28.98 20.3142 28.8703 20 28.8703C19.6858 28.8703 19.419 28.98 19.1994 29.1994C18.98 29.419 18.8703 29.6858 18.8703 30C18.8703 30.3142 18.98 30.581 19.1994 30.8006C19.419 31.02 19.6858 31.1297 20 31.1297ZM16.6347 35.625C16.0032 35.625 15.4688 35.4062 15.0313 34.9688C14.5938 34.5312 14.375 33.9968 14.375 33.3653V16.6347C14.375 16.0032 14.5938 15.4688 15.0313 15.0313C15.4688 14.5938 16.0032 14.375 16.6347 14.375H29.7356L35.625 20.2644V33.3653C35.625 33.9968 35.4062 34.5312 34.9688 34.9688C34.5312 35.4062 33.9968 35.625 33.3653 35.625H16.6347ZM16.6347 33.75H33.3653C33.4776 33.75 33.5698 33.714 33.6419 33.6419C33.714 33.5698 33.75 33.4776 33.75 33.3653V21.25H28.75V16.25H16.6347C16.5224 16.25 16.4302 16.286 16.3581 16.3581C16.286 16.4302 16.25 16.5224 16.25 16.6347V33.3653C16.25 33.4776 16.286 33.5698 16.3581 33.6419C16.4302 33.714 16.5224 33.75 16.6347 33.75Z" fill="#627580"/>
</g>
</svg>
