<svg width="50" height="50" viewBox="0 0 50 50" fill="none" xmlns="http://www.w3.org/2000/svg">
<rect width="50" height="50" rx="10" fill="white"/>
<mask id="mask0_1938_404" style="mask-type:alpha" maskUnits="userSpaceOnUse" x="10" y="10" width="30" height="30">
<rect x="10" y="10" width="30" height="30" fill="#D9D9D9"/>
</mask>
<g mask="url(#mask0_1938_404)">
<path d="M34.3003 35.625C31.9447 35.625 29.5781 35.0773 27.2006 33.9819C24.8233 32.8865 22.6391 31.3412 20.6478 29.3463C18.6568 27.351 17.1135 25.1667 16.0181 22.7931C14.9227 20.4198 14.375 18.0553 14.375 15.6997C14.375 15.3211 14.5 15.0057 14.75 14.7534C15 14.5011 15.3125 14.375 15.6875 14.375H19.7644C20.08 14.375 20.3584 14.478 20.5997 14.6841C20.8409 14.8899 20.9944 15.1443 21.06 15.4472L21.7766 19.125C21.8261 19.4662 21.8157 19.7595 21.7453 20.0047C21.6747 20.2499 21.548 20.4558 21.3653 20.6225L18.4784 23.4328C18.943 24.2836 19.4739 25.0885 20.0709 25.8475C20.6678 26.6063 21.3141 27.3309 22.0097 28.0216C22.6955 28.7076 23.4247 29.3447 24.1972 29.9328C24.9697 30.5209 25.8039 31.0682 26.6997 31.5747L29.5047 28.7453C29.7003 28.5418 29.9372 28.3991 30.2153 28.3172C30.4932 28.2355 30.7821 28.2155 31.0819 28.2572L34.5528 28.9641C34.8684 29.0474 35.126 29.2084 35.3256 29.4472C35.5252 29.6859 35.625 29.9568 35.625 30.2597V34.3125C35.625 34.6875 35.4989 35 35.2466 35.25C34.9943 35.5 34.6789 35.625 34.3003 35.625ZM17.5912 21.6588L19.8222 19.5241C19.8622 19.492 19.8882 19.4479 19.9003 19.3919C19.9124 19.3358 19.9104 19.2837 19.8944 19.2356L19.3509 16.4422C19.3349 16.3782 19.3069 16.3302 19.2669 16.2981C19.2269 16.266 19.1748 16.25 19.1106 16.25H16.4375C16.3894 16.25 16.3493 16.266 16.3172 16.2981C16.2853 16.3302 16.2694 16.3703 16.2694 16.4184C16.3333 17.2726 16.4731 18.1403 16.6887 19.0216C16.9042 19.903 17.205 20.7821 17.5912 21.6588ZM28.4662 32.4616C29.2948 32.8478 30.159 33.1431 31.0588 33.3475C31.9587 33.5517 32.7997 33.673 33.5816 33.7116C33.6297 33.7116 33.6698 33.6955 33.7019 33.6634C33.734 33.6314 33.75 33.5912 33.75 33.5431V30.9134C33.75 30.8493 33.734 30.7972 33.7019 30.7572C33.6698 30.7172 33.6218 30.6892 33.5578 30.6731L30.9328 30.1394C30.8847 30.1233 30.8426 30.1214 30.8066 30.1334C30.7705 30.1455 30.7324 30.1716 30.6922 30.2116L28.4662 32.4616Z" fill="#627580"/>
</g>
</svg>
