<svg width="50" height="50" viewBox="0 0 50 50" fill="none" xmlns="http://www.w3.org/2000/svg">
<rect width="50" height="50" rx="10" fill="#E7EFF4"/>
<mask id="mask0_1888_44" style="mask-type:alpha" maskUnits="userSpaceOnUse" x="10" y="10" width="30" height="30">
<rect x="10" y="10" width="30" height="30" fill="#D9D9D9"/>
</mask>
<g mask="url(#mask0_1888_44)">
<path d="M10.625 34.2306V32.3556H15.3847V31.25C14.7532 31.25 14.2188 31.0312 13.7812 30.5938C13.3438 30.1563 13.125 29.6218 13.125 28.9903V17.2597C13.125 16.6282 13.3438 16.0938 13.7812 15.6563C14.2188 15.2188 14.7532 15 15.3847 15H34.6153C35.2468 15 35.7812 15.2188 36.2188 15.6563C36.6562 16.0938 36.875 16.6282 36.875 17.2597V28.9903C36.875 29.6218 36.6562 30.1563 36.2188 30.5938C35.7812 31.0312 35.2468 31.25 34.6153 31.25V32.3556H39.375V34.2306H10.625ZM15.3847 29.375H34.6153C34.7276 29.375 34.8198 29.339 34.8919 29.2669C34.964 29.1948 35 29.1026 35 28.9903V17.2597C35 17.1476 34.964 17.0554 34.8919 16.9831C34.8198 16.911 34.7276 16.875 34.6153 16.875H15.3847C15.2724 16.875 15.1802 16.911 15.1081 16.9831C15.036 17.0554 15 17.1476 15 17.2597V28.9903C15 29.1026 15.036 29.1948 15.1081 29.2669C15.1802 29.339 15.2724 29.375 15.3847 29.375Z" fill="#627580"/>
</g>
</svg>
