<svg width="50" height="50" viewBox="0 0 50 50" fill="none" xmlns="http://www.w3.org/2000/svg">
<rect width="50" height="50" rx="10" fill="white"/>
<mask id="mask0_1938_316" style="mask-type:alpha" maskUnits="userSpaceOnUse" x="10" y="10" width="30" height="30">
<rect x="10" y="10" width="30" height="30" fill="#D9D9D9"/>
</mask>
<g mask="url(#mask0_1938_316)">
<path d="M27.4278 22.1828V20.5385C28.1074 20.2228 28.8185 19.9861 29.5613 19.8281C30.3042 19.6702 31.0754 19.5913 31.875 19.5913C32.3767 19.5913 32.8639 19.627 33.3366 19.6985C33.8093 19.7697 34.2836 19.8639 34.7597 19.981V21.5481C34.2918 21.3846 33.8266 21.266 33.3641 21.1922C32.9018 21.1185 32.4054 21.0816 31.875 21.0816C31.0754 21.0816 30.3009 21.1766 29.5516 21.3666C28.8024 21.5566 28.0945 21.8287 27.4278 22.1828ZM27.4278 29.0338V27.3653C28.0914 27.0497 28.8005 26.8129 29.5553 26.655C30.3101 26.4973 31.0833 26.4185 31.875 26.4185C32.3767 26.4185 32.8639 26.4541 33.3366 26.5253C33.8093 26.5966 34.2836 26.6907 34.7597 26.8078V28.375C34.2918 28.2115 33.8266 28.0928 33.3641 28.0191C32.9018 27.9455 32.4054 27.9088 31.875 27.9088C31.0754 27.9088 30.3009 28.0045 29.5516 28.196C28.8024 28.3874 28.0945 28.6667 27.4278 29.0338ZM27.4278 25.6203V23.9519C28.1074 23.6363 28.8185 23.3995 29.5613 23.2416C30.3042 23.0837 31.0754 23.0047 31.875 23.0047C32.3767 23.0047 32.8639 23.0404 33.3366 23.1119C33.8093 23.1831 34.2836 23.2773 34.7597 23.3944V24.9616C34.2918 24.798 33.8266 24.6794 33.3641 24.6056C32.9018 24.5321 32.4054 24.4953 31.875 24.4953C31.0754 24.4953 30.3009 24.5943 29.5516 24.7922C28.8024 24.9901 28.0945 25.2662 27.4278 25.6203ZM18.125 30.0241C19.1602 30.0241 20.1674 30.1415 21.1466 30.3763C22.1257 30.6111 23.0977 30.9793 24.0625 31.481V19.1922C23.1844 18.6201 22.2341 18.1911 21.2116 17.905C20.1891 17.619 19.1602 17.476 18.125 17.476C17.375 17.476 16.6743 17.5348 16.0228 17.6525C15.3714 17.7704 14.7019 17.9631 14.0144 18.2306C13.9183 18.2627 13.8502 18.3089 13.81 18.3691C13.77 18.4291 13.75 18.4951 13.75 18.5672V30.3894C13.75 30.5017 13.7901 30.5839 13.8703 30.636C13.9503 30.688 14.0384 30.694 14.1347 30.6538C14.7276 30.4519 15.3533 30.2965 16.0119 30.1875C16.6706 30.0786 17.375 30.0241 18.125 30.0241ZM25.9375 31.481C26.9023 30.9793 27.8743 30.6111 28.8534 30.3763C29.8326 30.1415 30.8398 30.0241 31.875 30.0241C32.625 30.0241 33.3294 30.0786 33.9881 30.1875C34.6467 30.2965 35.2724 30.4519 35.8653 30.6538C35.9616 30.694 36.0497 30.688 36.1297 30.636C36.2099 30.5839 36.25 30.5017 36.25 30.3894V18.5672C36.25 18.4951 36.23 18.4311 36.19 18.375C36.1498 18.319 36.0817 18.2708 35.9856 18.2306C35.2981 17.9631 34.6286 17.7704 33.9772 17.6525C33.3257 17.5348 32.625 17.476 31.875 17.476C30.8398 17.476 29.8109 17.619 28.7884 17.905C27.7659 18.1911 26.8156 18.6201 25.9375 19.1922V31.481ZM25 34.2306C23.9921 33.4871 22.9048 32.9126 21.7381 32.5072C20.5715 32.1018 19.3671 31.8991 18.125 31.8991C17.3623 31.8991 16.6131 31.9836 15.8775 32.1525C15.1419 32.3217 14.4327 32.5705 13.75 32.8991C13.3046 33.1041 12.8807 33.0716 12.4784 32.8016C12.0761 32.5316 11.875 32.149 11.875 31.6538V18.0819C11.875 17.8125 11.9444 17.5597 12.0831 17.3235C12.2217 17.087 12.4216 16.9167 12.6828 16.8125C13.5289 16.4006 14.4106 16.0957 15.3281 15.8978C16.2456 15.6999 17.1779 15.601 18.125 15.601C19.3412 15.601 20.5296 15.7672 21.69 16.0997C22.8502 16.4324 23.9535 16.9232 25 17.5722C26.0465 16.9232 27.1498 16.4324 28.31 16.0997C29.4704 15.7672 30.6588 15.601 31.875 15.601C32.8221 15.601 33.7544 15.6999 34.6719 15.8978C35.5894 16.0957 36.4711 16.4006 37.3172 16.8125C37.5784 16.9167 37.7783 17.087 37.9169 17.3235C38.0556 17.5597 38.125 17.8125 38.125 18.0819V31.6538C38.125 32.149 37.9158 32.5276 37.4975 32.7897C37.0792 33.0516 36.6393 33.08 36.1778 32.875C35.5032 32.5544 34.8042 32.3116 34.0806 32.1466C33.3571 31.9816 32.6219 31.8991 31.875 31.8991C30.6329 31.8991 29.4285 32.1018 28.2619 32.5072C27.0952 32.9126 26.0079 33.4871 25 34.2306Z" fill="#627580"/>
</g>
</svg>
