<svg width="50" height="50" viewBox="0 0 50 50" fill="none" xmlns="http://www.w3.org/2000/svg">
<rect width="50" height="50" rx="10" fill="#E7EFF4"/>
<mask id="mask0_1888_38" style="mask-type:alpha" maskUnits="userSpaceOnUse" x="10" y="10" width="30" height="30">
<rect x="10" y="10" width="30" height="30" fill="#D9D9D9"/>
</mask>
<g mask="url(#mask0_1888_38)">
<path d="M29.5672 23.75L25 28.3172L20.4328 23.75L21.75 22.4328L24.0625 24.7069V19.1828H25.9375V24.7069L28.25 22.4328L29.5672 23.75ZM22.6444 34.7838H27.3556V33.6778H22.6444V34.7838ZM19.1347 38.125C18.5032 38.125 17.9688 37.9062 17.5313 37.4688C17.0938 37.0312 16.875 36.4968 16.875 35.8653V14.1347C16.875 13.5032 17.0938 12.9688 17.5313 12.5313C17.9688 12.0938 18.5032 11.875 19.1347 11.875H30.8653C31.4968 11.875 32.0313 12.0938 32.4688 12.5313C32.9062 12.9688 33.125 13.5032 33.125 14.1347V35.8653C33.125 36.4968 32.9062 37.0312 32.4688 37.4688C32.0313 37.9062 31.4968 38.125 30.8653 38.125H19.1347ZM18.75 32.2116V35.8653C18.75 35.9616 18.7901 36.0497 18.8703 36.1297C18.9503 36.2099 19.0384 36.25 19.1347 36.25H30.8653C30.9616 36.25 31.0497 36.2099 31.1297 36.1297C31.2099 36.0497 31.25 35.9616 31.25 35.8653V32.2116H18.75ZM18.75 30.3366H31.25V17.1875H18.75V30.3366ZM18.75 15.3125H31.25V14.1347C31.25 14.0384 31.2099 13.9503 31.1297 13.8703C31.0497 13.7901 30.9616 13.75 30.8653 13.75H19.1347C19.0384 13.75 18.9503 13.7901 18.8703 13.8703C18.7901 13.9503 18.75 14.0384 18.75 14.1347V15.3125Z" fill="#627580"/>
</g>
</svg>
