<svg width="50" height="50" viewBox="0 0 50 50" fill="none" xmlns="http://www.w3.org/2000/svg">
<rect width="50" height="50" rx="10" fill="white"/>
<mask id="mask0_1938_445" style="mask-type:alpha" maskUnits="userSpaceOnUse" x="10" y="10" width="30" height="30">
<rect x="10" y="10" width="30" height="30" fill="#D9D9D9"/>
</mask>
<g mask="url(#mask0_1938_445)">
<path d="M25.0004 36.8869C21.8546 34.161 19.4956 31.6243 17.9236 29.2766C16.3515 26.9286 15.5654 24.7731 15.5654 22.81C15.5654 19.9254 16.4985 17.5901 18.3645 15.8041C20.2307 14.018 22.4427 13.125 25.0004 13.125H25.5051C25.6735 13.125 25.8418 13.1378 26.0101 13.1634V15.0578C25.8418 15.0322 25.6777 15.0142 25.5179 15.0037C25.3579 14.9933 25.1854 14.9881 25.0004 14.9881C22.8563 14.9881 21.0602 15.7221 19.6123 17.19C18.1644 18.6579 17.4404 20.5312 17.4404 22.81C17.4404 24.3212 18.0891 26.0821 19.3864 28.0925C20.6837 30.1029 22.555 32.2027 25.0004 34.3919C27.4298 32.2188 29.2912 30.137 30.5845 28.1466C31.8778 26.1561 32.5365 24.4054 32.5604 22.8944V22.7403H34.4354V22.8944C34.4115 24.8494 33.6154 26.9927 32.0473 29.3244C30.4792 31.6562 28.1302 34.1771 25.0004 36.8869ZM25.0026 24.8316C25.6245 24.8316 26.1562 24.6101 26.5976 24.1672C27.0393 23.7243 27.2601 23.1919 27.2601 22.57C27.2601 21.9481 27.0387 21.4164 26.5957 20.9747C26.1528 20.5332 25.6203 20.3125 24.9982 20.3125C24.3764 20.3125 23.8447 20.534 23.4032 20.9769C22.9616 21.4198 22.7407 21.9523 22.7407 22.5744C22.7407 23.1963 22.9622 23.7279 23.4051 24.1694C23.848 24.6108 24.3805 24.8316 25.0026 24.8316ZM32.5004 20H34.3754V16.25H38.1254V14.375H34.3754V10.625H32.5004V14.375H28.7504V16.25H32.5004V20Z" fill="#627580"/>
</g>
</svg>
