<svg width="50" height="50" viewBox="0 0 50 50" fill="none" xmlns="http://www.w3.org/2000/svg">
<rect width="50" height="50" rx="10" fill="white"/>
<mask id="mask0_1938_396" style="mask-type:alpha" maskUnits="userSpaceOnUse" x="10" y="10" width="30" height="30">
<rect x="10" y="10" width="30" height="30" fill="#D9D9D9"/>
</mask>
<g mask="url(#mask0_1938_396)">
<path d="M17.5287 31.6153C18.5912 30.827 19.7488 30.2044 21.0013 29.7475C22.2535 29.2908 23.5865 29.0625 25 29.0625C26.4135 29.0625 27.7465 29.2908 28.9988 29.7475C30.2513 30.2044 31.4088 30.827 32.4713 31.6153C33.2483 30.7611 33.8641 29.7724 34.3184 28.6491C34.7728 27.5257 35 26.3094 35 25C35 22.2292 34.026 19.8698 32.0781 17.9219C30.1302 15.974 27.7708 15 25 15C22.2292 15 19.8698 15.974 17.9219 17.9219C15.974 19.8698 15 22.2292 15 25C15 26.3094 15.2272 27.5257 15.6816 28.6491C16.1359 29.7724 16.7517 30.7611 17.5287 31.6153ZM25.0003 25.9375C23.8591 25.9375 22.8967 25.5458 22.1131 24.7625C21.3294 23.979 20.9375 23.0166 20.9375 21.8753C20.9375 20.7341 21.3292 19.7717 22.1125 18.9881C22.896 18.2044 23.8584 17.8125 24.9997 17.8125C26.1409 17.8125 27.1033 18.2042 27.8869 18.9875C28.6706 19.771 29.0625 20.7334 29.0625 21.8747C29.0625 23.0159 28.6708 23.9783 27.8875 24.7619C27.104 25.5456 26.1416 25.9375 25.0003 25.9375ZM25 36.875C23.351 36.875 21.8042 36.5649 20.3594 35.9447C18.9146 35.3245 17.6578 34.4799 16.5891 33.4109C15.5201 32.3422 14.6755 31.0854 14.0553 29.6406C13.4351 28.1958 13.125 26.649 13.125 25C13.125 23.351 13.4351 21.8042 14.0553 20.3594C14.6755 18.9146 15.5201 17.6578 16.5891 16.5891C17.6578 15.5201 18.9146 14.6755 20.3594 14.0553C21.8042 13.4351 23.351 13.125 25 13.125C26.649 13.125 28.1958 13.4351 29.6406 14.0553C31.0854 14.6755 32.3422 15.5201 33.4109 16.5891C34.4799 17.6578 35.3245 18.9146 35.9447 20.3594C36.5649 21.8042 36.875 23.351 36.875 25C36.875 26.649 36.5649 28.1958 35.9447 29.6406C35.3245 31.0854 34.4799 32.3422 33.4109 33.4109C32.3422 34.4799 31.0854 35.3245 29.6406 35.9447C28.1958 36.5649 26.649 36.875 25 36.875ZM25 35C26.1281 35 27.2158 34.8185 28.2631 34.4556C29.3104 34.0925 30.2403 33.5849 31.0528 32.9328C30.2403 32.3045 29.3225 31.8149 28.2994 31.4641C27.276 31.113 26.1763 30.9375 25 30.9375C23.8237 30.9375 22.722 31.1109 21.6947 31.4578C20.6674 31.8049 19.7516 32.2966 18.9472 32.9328C19.7597 33.5849 20.6896 34.0925 21.7369 34.4556C22.7842 34.8185 23.8719 35 25 35ZM25 24.0625C25.6219 24.0625 26.1419 23.8533 26.56 23.435C26.9783 23.0169 27.1875 22.4969 27.1875 21.875C27.1875 21.2531 26.9783 20.7331 26.56 20.315C26.1419 19.8967 25.6219 19.6875 25 19.6875C24.3781 19.6875 23.8581 19.8967 23.44 20.315C23.0217 20.7331 22.8125 21.2531 22.8125 21.875C22.8125 22.4969 23.0217 23.0169 23.44 23.435C23.8581 23.8533 24.3781 24.0625 25 24.0625Z" fill="#627580"/>
</g>
</svg>
