<svg width="50" height="50" viewBox="0 0 50 50" fill="none" xmlns="http://www.w3.org/2000/svg">
<rect width="50" height="50" rx="10" fill="#E7EFF4"/>
<mask id="mask0_1888_56" style="mask-type:alpha" maskUnits="userSpaceOnUse" x="10" y="10" width="30" height="30">
<rect x="10" y="10" width="30" height="30" fill="#D9D9D9"/>
</mask>
<g mask="url(#mask0_1888_56)">
<path d="M35.9566 23.7162V33.6778C35.9566 34.3093 35.7378 34.8438 35.3003 35.2812C34.8628 35.7188 34.3284 35.9375 33.6972 35.9375H16.3412C15.71 35.9375 15.1756 35.7188 14.7381 35.2812C14.3006 34.8438 14.0819 34.3093 14.0819 33.6778V23.6922C13.5785 23.2789 13.2007 22.7424 12.9484 22.0828C12.6959 21.4234 12.6907 20.7116 12.9328 19.9472L14.1972 15.8172C14.3638 15.2916 14.6467 14.8677 15.0456 14.5456C15.4448 14.2235 15.9216 14.0625 16.4759 14.0625H33.5384C34.093 14.0625 34.5666 14.2164 34.9591 14.5241C35.3518 14.8318 35.6378 15.2549 35.8172 15.7934L37.1056 19.9472C37.3477 20.7116 37.3425 21.421 37.09 22.0756C36.8377 22.7304 36.4599 23.2773 35.9566 23.7162ZM27.7694 22.8125C28.4521 22.8125 28.9653 22.6038 29.3091 22.1863C29.6528 21.7688 29.7934 21.3204 29.7309 20.8412L28.9712 15.9375H25.9566V20.875C25.9566 21.4006 26.1345 21.855 26.4903 22.2381C26.8461 22.621 27.2725 22.8125 27.7694 22.8125ZM22.1444 22.8125C22.7196 22.8125 23.1862 22.621 23.5444 22.2381C23.9027 21.855 24.0819 21.4006 24.0819 20.875V15.9375H21.0672L20.3078 20.8894C20.2403 21.3333 20.3797 21.7649 20.7259 22.1841C21.0722 22.603 21.545 22.8125 22.1444 22.8125ZM16.5819 22.8125C17.045 22.8125 17.4432 22.651 17.7766 22.3281C18.1099 22.0052 18.3158 21.5994 18.3944 21.1106L19.1297 15.9375H16.4759C16.3397 15.9375 16.2316 15.9675 16.1516 16.0275C16.0713 16.0877 16.0112 16.1779 15.9712 16.2981L14.7691 20.3653C14.6041 20.9022 14.6819 21.4443 15.0025 21.9916C15.3229 22.5389 15.8494 22.8125 16.5819 22.8125ZM33.4569 22.8125C34.1331 22.8125 34.6507 22.5469 35.0097 22.0156C35.3686 21.4844 35.4552 20.9343 35.2694 20.3653L34.0047 16.2741C33.9647 16.1539 33.9047 16.0677 33.8247 16.0156C33.7445 15.9635 33.6362 15.9375 33.5 15.9375H30.9087L31.6441 21.1106C31.7226 21.5994 31.9285 22.0052 32.2619 22.3281C32.5952 22.651 32.9935 22.8125 33.4569 22.8125ZM16.3412 34.0625H33.6972C33.8093 34.0625 33.9014 34.0265 33.9734 33.9544C34.0457 33.8823 34.0819 33.7901 34.0819 33.6778V24.5769C33.9456 24.6267 33.8318 24.6575 33.7403 24.6694C33.6491 24.6815 33.5546 24.6875 33.4569 24.6875C32.8944 24.6875 32.3996 24.5857 31.9725 24.3822C31.5454 24.1786 31.1315 23.8525 30.7306 23.4037C30.3798 23.7948 29.9648 24.1066 29.4856 24.3391C29.0065 24.5714 28.46 24.6875 27.8462 24.6875C27.3158 24.6875 26.8158 24.5773 26.3462 24.3569C25.8767 24.1367 25.4344 23.819 25.0194 23.4037C24.6331 23.819 24.1956 24.1367 23.7069 24.3569C23.2179 24.5773 22.7227 24.6875 22.2212 24.6875C21.6571 24.6875 21.1282 24.5853 20.6347 24.3809C20.1411 24.1766 19.7069 23.8508 19.3319 23.4037C18.806 23.9294 18.3216 24.2748 17.8784 24.44C17.4355 24.605 17.0033 24.6875 16.5819 24.6875C16.484 24.6875 16.3829 24.6815 16.2787 24.6694C16.1746 24.6575 16.0672 24.6267 15.9566 24.5769V33.6778C15.9566 33.7901 15.9927 33.8823 16.065 33.9544C16.1371 34.0265 16.2292 34.0625 16.3412 34.0625Z" fill="#627580"/>
</g>
</svg>
