<svg width="50" height="50" viewBox="0 0 50 50" fill="none" xmlns="http://www.w3.org/2000/svg">
<rect width="50" height="50" rx="10" fill="white"/>
<mask id="mask0_1938_300" style="mask-type:alpha" maskUnits="userSpaceOnUse" x="10" y="10" width="30" height="30">
<rect x="10" y="10" width="30" height="30" fill="#D9D9D9"/>
</mask>
<g mask="url(#mask0_1938_300)">
<path d="M17.9567 34.3869L19.7354 29.9519C19.8829 29.5929 20.1149 29.3049 20.4314 29.0878C20.7478 28.8705 21.1024 28.7619 21.4951 28.7619H24.0623V23.2378C21.0431 23.1578 18.5115 22.7452 16.4673 22C14.4233 21.2548 13.4014 20.3798 13.4014 19.375C13.4014 18.2948 14.5279 17.3777 16.7811 16.6237C19.0342 15.8698 21.7738 15.4928 24.9998 15.4928C28.2386 15.4928 30.9814 15.8698 33.2282 16.6237C35.4749 17.3777 36.5982 18.2948 36.5982 19.375C36.5982 20.3877 35.5742 21.2647 33.5261 22.0059C31.4781 22.7472 28.9486 23.1578 25.9373 23.2378V28.7619H28.5045C28.8843 28.7619 29.2356 28.8705 29.5586 29.0878C29.8815 29.3049 30.1167 29.5929 30.2642 29.9519L32.0429 34.3869H30.1442L28.6442 30.6369H21.3554L19.8554 34.3869H17.9567ZM24.9998 21.3822C27.1329 21.3822 29.0973 21.189 30.8929 20.8028C32.6886 20.4165 33.8948 19.9406 34.5117 19.375C33.8948 18.8094 32.6886 18.3334 30.8929 17.9472C29.0973 17.5609 27.1329 17.3678 24.9998 17.3678C22.8667 17.3678 20.9023 17.5609 19.1067 17.9472C17.3111 18.3334 16.1048 18.8094 15.4879 19.375C16.1048 19.9406 17.3111 20.4165 19.1067 20.8028C20.9023 21.189 22.8667 21.3822 24.9998 21.3822Z" fill="#627580"/>
</g>
</svg>
