<svg width="50" height="50" viewBox="0 0 50 50" fill="none" xmlns="http://www.w3.org/2000/svg">
<rect width="50" height="50" rx="10" fill="white"/>
<path d="M33.4141 32.9499C33.8247 31.69 35.7486 19.1333 35.9864 16.659C36.0582 15.9097 35.8214 15.4117 35.3574 15.1894C34.7964 14.9196 33.9655 15.0545 33.0016 15.402C31.6795 15.8786 14.7781 23.0548 13.8016 23.4703C12.8756 23.8634 12 24.2925 12 24.9137C12 25.3505 12.2592 25.5961 12.9736 25.8514C13.7171 26.1164 15.5896 26.6842 16.6952 26.989C17.76 27.2831 18.9724 27.0278 19.6519 26.6056C20.3721 26.1581 28.684 20.5961 29.281 20.1088C29.877 19.6216 30.3526 20.2457 29.8653 20.734C29.378 21.2212 23.6724 26.7589 22.9201 27.5258C22.0067 28.4567 22.6551 29.4215 23.2676 29.8078C23.9675 30.2485 29.0004 33.6245 29.7585 34.1662C30.5166 34.7078 31.2854 34.9534 31.9892 34.9534C32.6929 34.9534 33.0637 34.0264 33.4141 32.9499Z" fill="#627580"/>
</svg>
