<svg width="50" height="50" viewBox="0 0 50 50" fill="none" xmlns="http://www.w3.org/2000/svg">
<rect width="50" height="50" rx="10" fill="white"/>
<mask id="mask0_1938_437" style="mask-type:alpha" maskUnits="userSpaceOnUse" x="10" y="10" width="30" height="30">
<rect x="10" y="10" width="30" height="30" fill="#D9D9D9"/>
</mask>
<g mask="url(#mask0_1938_437)">
<path d="M24.9944 36.875C23.3538 36.875 21.8119 36.5629 20.3687 35.9387C18.9258 35.3146 17.6697 34.4683 16.6003 33.4C15.5309 32.3317 14.6844 31.0753 14.0606 29.6309C13.4369 28.1868 13.125 26.6436 13.125 25.0016C13.125 23.3595 13.4368 21.8158 14.0603 20.3706C14.6836 18.9254 15.5297 17.6683 16.5984 16.5994C17.6672 15.5304 18.924 14.6841 20.3687 14.0603C21.8135 13.4368 23.3573 13.125 25 13.125C26.3167 13.125 27.5625 13.3229 28.7375 13.7188C29.9125 14.1146 30.9904 14.6667 31.9713 15.375L30.6153 16.7622C29.8076 16.2059 28.9327 15.7732 27.9906 15.4641C27.0485 15.1547 26.0517 15 25 15C22.2292 15 19.8698 15.974 17.9219 17.9219C15.974 19.8698 15 22.2292 15 25C15 27.7708 15.974 30.1302 17.9219 32.0781C19.8698 34.026 22.2292 35 25 35C25.6987 35 26.3767 34.9295 27.0338 34.7884C27.6908 34.6474 28.323 34.4503 28.9303 34.1972L30.3366 35.6225C29.5305 36.0231 28.6807 36.3321 27.7872 36.5494C26.8939 36.7665 25.9629 36.875 24.9944 36.875ZM34.0625 34.6875V30.9375H30.3125V29.0625H34.0625V25.3125H35.9375V29.0625H39.6875V30.9375H35.9375V34.6875H34.0625ZM23.2259 30.3172L18.3462 25.4375L19.6634 24.1203L23.2259 27.6828L35.5578 15.3319L36.875 16.6491L23.2259 30.3172Z" fill="#627580"/>
</g>
</svg>
