<svg width="50" height="50" viewBox="0 0 50 50" fill="none" xmlns="http://www.w3.org/2000/svg">
<rect width="50" height="50" rx="10" fill="#E7EFF4"/>
<mask id="mask0_1888_50" style="mask-type:alpha" maskUnits="userSpaceOnUse" x="10" y="10" width="30" height="30">
<rect x="10" y="10" width="30" height="30" fill="#D9D9D9"/>
</mask>
<g mask="url(#mask0_1888_50)">
<path d="M23.6875 30.2547L30.3172 23.625L28.9806 22.2884L23.6875 27.5819L21.0194 24.9134L19.6828 26.25L23.6875 30.2547ZM25 36.875C23.5256 36.875 22.1443 36.5961 20.8559 36.0384C19.5674 35.4807 18.444 34.7227 17.4856 33.7644C16.5273 32.806 15.7693 31.6826 15.2116 30.3941C14.6539 29.1057 14.375 27.7244 14.375 26.25C14.375 24.7756 14.6539 23.3943 15.2116 22.1059C15.7693 20.8174 16.5273 19.694 17.4856 18.7356C18.444 17.7773 19.5674 17.0193 20.8559 16.4616C22.1443 15.9039 23.5256 15.625 25 15.625C26.4744 15.625 27.8557 15.9039 29.1441 16.4616C30.4326 17.0193 31.556 17.7773 32.5144 18.7356C33.4727 19.694 34.2307 20.8174 34.7884 22.1059C35.3461 23.3943 35.625 24.7756 35.625 26.25C35.625 27.7244 35.3461 29.1057 34.7884 30.3941C34.2307 31.6826 33.4727 32.806 32.5144 33.7644C31.556 34.7227 30.4326 35.4807 29.1441 36.0384C27.8557 36.5961 26.4744 36.875 25 36.875ZM17.1922 13.6106L18.5097 14.9278L13.6778 19.7597L12.3606 18.4422L17.1922 13.6106ZM32.8078 13.6106L37.6394 18.4422L36.3222 19.7597L31.4903 14.9278L32.8078 13.6106ZM25 35C27.4296 35 29.4953 34.1491 31.1972 32.4472C32.8991 30.7453 33.75 28.6796 33.75 26.25C33.75 23.8204 32.8991 21.7547 31.1972 20.0528C29.4953 18.3509 27.4296 17.5 25 17.5C22.5704 17.5 20.5047 18.3509 18.8028 20.0528C17.1009 21.7547 16.25 23.8204 16.25 26.25C16.25 28.6796 17.1009 30.7453 18.8028 32.4472C20.5047 34.1491 22.5704 35 25 35Z" fill="#627580"/>
</g>
</svg>
